<?xml version="1.0" encoding="UTF-8"?><svg xmlns="http://www.w3.org/2000/svg" xmlns:xlink="http://www.w3.org/1999/xlink" viewBox="0 0 1280 100"><defs><style>.e{fill:none;}.f{fill:#bdbebe;}.g{fill:#399dd8;}.h{clip-path:url(#d);}</style><clipPath id="d"><rect class="e" width="1280" height="100"/></clipPath></defs><g id="a"/><g id="b"><g id="c"><g><rect class="g" width="1280" height="100"/><g class="h"><path class="f" d="M5,50s93-22,119,14c0,0,97.62-1,102.81,36H0V52.36s1.5-1.86,5-2.36Z"/><path class="f" d="M96,50s93-22,119,14c0,0,97.62-1,102.81,36H91V52.36s1.5-1.86,5-2.36Z"/><ellipse class="f" cx="489" cy="15.5" rx="83" ry="27.5"/><circle class="f" cx="559.5" cy="-1.5" r="44.5"/><ellipse class="f" cx="643.5" cy="10.5" rx="71.5" ry="32.5"/><ellipse class="f" cx="890" cy="109" rx="67" ry="37"/><ellipse class="f" cx="938" cy="83.5" rx="48" ry="40.5"/><ellipse class="f" cx="1012" cy="97.5" rx="85" ry="25.5"/><ellipse class="f" cx="1133.5" cy="6.5" rx="36.5" ry="28.5"/><ellipse class="f" cx="1201" cy="11.5" rx="58" ry="23.5"/><ellipse class="f" cx="1170.5" cy="3" rx="54.5" ry="49"/></g></g></g></g></svg>