<?xml version="1.0" encoding="UTF-8"?><svg xmlns="http://www.w3.org/2000/svg" xmlns:xlink="http://www.w3.org/1999/xlink" viewBox="0 0 1290 100"><defs><style>.e,.f{fill:none;}.f{stroke:#fff;stroke-miterlimit:10;stroke-width:3px;}.g{fill:#1785ff;}.h{clip-path:url(#d);}</style><clipPath id="d"><rect class="e" x="10" width="1280" height="100"/></clipPath></defs><g id="a"/><g id="b"><g id="c"><g><rect class="g" width="1280" height="100"/><g class="h"><g><line class="f" x1="434" y1="48" x2="478" y2="-6"/><line class="f" x1="441" y1="75" x2="485" y2="21"/><line class="f" x1="509" y1="48" x2="553" y2="-6"/><line class="f" x1="449" y1="107" x2="493" y2="53"/><line class="f" x1="519" y1="102" x2="563" y2="48"/><line class="f" x1="623" y1="89" x2="667" y2="35"/><line class="f" x1="575" y1="89" x2="619" y2="35"/><line class="f" x1="563" y1="35" x2="607" y2="-19"/><line class="f" x1="698" y1="48" x2="742" y2="-6"/><line class="f" x1="645" y1="107" x2="689" y2="53"/><line class="f" x1="703" y1="116" x2="747" y2="62"/><line class="f" x1="633" y1="35" x2="677" y2="-19"/><line class="f" x1="703" y1="75" x2="747" y2="21"/><line class="f" x1="780" y1="48" x2="824" y2="-6"/><line class="f" x1="747" y1="48" x2="791" y2="-6"/><line class="f" x1="103" y1="53" x2="147" y2="-1"/><line class="f" x1="110" y1="80" x2="154" y2="26"/><line class="f" x1="178" y1="53" x2="222" y2="-1"/><line class="f" x1="118" y1="112" x2="162" y2="58"/><line class="f" x1="188" y1="107" x2="232" y2="53"/><line class="f" x1="45" y1="45" x2="89" y2="-9"/><line class="f" x1="52" y1="72" x2="96" y2="18"/><line class="f" x1="120" y1="45" x2="164" y2="-9"/><line class="f" x1="60" y1="104" x2="104" y2="50"/><line class="f" x1="130" y1="99" x2="174" y2="45"/><line class="f" x1="292" y1="94" x2="336" y2="40"/><line class="f" x1="244" y1="94" x2="288" y2="40"/><line class="f" x1="232" y1="40" x2="276" y2="-14"/><line class="f" x1="367" y1="53" x2="411" y2="-1"/><line class="f" x1="314" y1="112" x2="358" y2="58"/><line class="f" x1="372" y1="121" x2="416" y2="67"/><line class="f" x1="302" y1="40" x2="346" y2="-14"/><line class="f" x1="372" y1="80" x2="416" y2="26"/><line class="f" x1="449" y1="53" x2="493" y2="-1"/><line class="f" x1="416" y1="53" x2="460" y2="-1"/><line class="f" x1="865" y1="45" x2="909" y2="-9"/><line class="f" x1="872" y1="72" x2="916" y2="18"/><line class="f" x1="940" y1="45" x2="984" y2="-9"/><line class="f" x1="880" y1="104" x2="924" y2="50"/><line class="f" x1="950" y1="99" x2="994" y2="45"/><line class="f" x1="1054" y1="86" x2="1098" y2="32"/><line class="f" x1="1006" y1="86" x2="1050" y2="32"/><line class="f" x1="994" y1="32" x2="1038" y2="-22"/><line class="f" x1="1129" y1="45" x2="1173" y2="-9"/><line class="f" x1="1076" y1="104" x2="1120" y2="50"/><line class="f" x1="1134" y1="113" x2="1178" y2="59"/><line class="f" x1="1064" y1="32" x2="1108" y2="-22"/><line class="f" x1="1134" y1="72" x2="1178" y2="18"/><line class="f" x1="1211" y1="45" x2="1255" y2="-9"/><line class="f" x1="1178" y1="45" x2="1222" y2="-9"/><line class="f" x1="619" y1="104" x2="663" y2="50"/><line class="f" x1="723" y1="91" x2="767" y2="37"/><line class="f" x1="675" y1="91" x2="719" y2="37"/><line class="f" x1="663" y1="37" x2="707" y2="-17"/><line class="f" x1="798" y1="50" x2="842" y2="-4"/><line class="f" x1="745" y1="109" x2="789" y2="55"/><line class="f" x1="803" y1="118" x2="847" y2="64"/><line class="f" x1="733" y1="37" x2="777" y2="-17"/><line class="f" x1="803" y1="77" x2="847" y2="23"/><line class="f" x1="880" y1="50" x2="924" y2="-4"/><line class="f" x1="847" y1="50" x2="891" y2="-4"/></g></g></g></g></g></svg>