<?xml version="1.0" encoding="UTF-8"?><svg xmlns="http://www.w3.org/2000/svg" xmlns:xlink="http://www.w3.org/1999/xlink" viewBox="0 0 1280 100"><defs><style>.e{fill:none;}.f{fill:#edffff;}.g{fill:#fffef7;}.h{clip-path:url(#d);}</style><clipPath id="d"><rect class="e" width="1280" height="100"/></clipPath></defs><g id="a"/><g id="b"><g id="c"><g><rect class="f" width="1280" height="100"/><g class="h"><g><ellipse class="g" cx="114.5" cy="98" rx="55.5" ry="34"/><ellipse class="g" cx="159" cy="67" rx="44" ry="31"/><ellipse class="g" cx="190" cy="99.5" rx="53" ry="32.5"/></g><g><ellipse class="g" cx="857.5" cy="26" rx="44.5" ry="24"/><ellipse class="g" cx="872" cy="-1" rx="30" ry="27" transform="translate(805.88 868.49) rotate(-85.59)"/><ellipse class="g" cx="905" cy="18" rx="59" ry="23"/></g><g><ellipse class="g" cx="305.35" cy="32.84" rx="25.35" ry="10.32"/><ellipse class="g" cx="323.07" cy="44.06" rx="24.22" ry="13.01" transform="translate(-.36 85.4) rotate(-15.05)"/><ellipse class="g" cx="344.82" cy="27.91" rx="31.18" ry="13.91"/></g><g><ellipse class="g" cx="644.35" cy="85.84" rx="25.35" ry="10.32"/><ellipse class="g" cx="662.07" cy="97.06" rx="24.22" ry="13.01" transform="translate(-2.49 175.25) rotate(-15.05)"/><ellipse class="g" cx="683.82" cy="80.91" rx="31.18" ry="13.91"/></g><g><ellipse class="g" cx="1104.38" cy="74.04" rx="35.38" ry="17.54"/><ellipse class="g" cx="1129.11" cy="93.11" rx="34.47" ry="21.7" transform="translate(46.84 428.16) rotate(-21.92)"/><ellipse class="g" cx="1159.48" cy="65.65" rx="43.52" ry="23.65"/></g></g></g></g></g></svg>